#N canvas 2464 330 637 447 10;
#N canvas 3107 49 694 932 mixer 0;
#X obj 222 173 +~;
#X obj 180 173 +~;
#X obj 208 281 outlet~;
#X obj 266 281 outlet~;
#X obj 242 200 +~;
#X obj 200 200 +~;
#X obj 262 228 +~;
#X obj 220 227 +~;
#N canvas 2694 247 881 614 mixer_track1 0;
#X obj 184 94 inlet~;
#X obj 241 95 inlet~;
#X obj 141 289 env~;
#X obj 313 293 env~;
#X obj 296 52 receive track1_vol;
#X obj 65 34 receive track1_bal;
#X obj 326 78 nbx 5 14 -1e+37 1e+37 0 0 empty empty empty 0 -8 0 10
-262144 -1 -1 100 256;
#X obj 296 100 / 100;
#X obj 203 140 *~;
#X obj 253 140 *~;
#X obj 237 183 *~;
#X obj 188 183 *~;
#X obj 188 226 env~;
#X obj 237 226 env~;
#X obj 31 63 nbx 5 14 -1e+37 1e+37 0 0 empty empty empty 0 -8 0 10
-262144 -1 -1 0 256;
#X obj 237 253 - 100;
#X obj 313 320 - 100;
#X obj 141 316 - 100;
#X obj 295 258 receive mixer_vumode;
#X obj 139 395 send track1_vu1;
#X obj 245 395 send track1_vu2;
#X obj 212 297 - 1;
#X obj 212 320 abs;
#X obj 212 344 *;
#X obj 184 297 *;
#X obj 188 251 - 100;
#X obj 184 369 +;
#X obj 273 297 - 1;
#X obj 273 320 abs;
#X obj 273 344 *;
#X obj 245 297 *;
#X obj 245 369 +;
#X obj 97 213 outlet~;
#X obj 314 212 outlet~;
#X obj 97 60 / 50;
#X obj 111 87 + 1;
#X obj 111 114 min 1;
#X obj 67 87 * -1;
#X obj 67 114 + 1;
#X obj 67 141 min 1;
#X connect 0 0 2 0;
#X connect 0 0 8 1;
#X connect 1 0 3 0;
#X connect 1 0 9 1;
#X connect 2 0 17 0;
#X connect 3 0 16 0;
#X connect 4 0 6 0;
#X connect 4 0 7 0;
#X connect 5 0 14 0;
#X connect 5 0 34 0;
#X connect 7 0 8 0;
#X connect 7 0 9 0;
#X connect 8 0 11 1;
#X connect 9 0 10 1;
#X connect 10 0 13 0;
#X connect 10 0 33 0;
#X connect 11 0 12 0;
#X connect 11 0 32 0;
#X connect 12 0 25 0;
#X connect 13 0 15 0;
#X connect 15 0 30 0;
#X connect 16 0 29 0;
#X connect 17 0 23 0;
#X connect 18 0 21 0;
#X connect 18 0 24 1;
#X connect 18 0 30 1;
#X connect 18 0 27 0;
#X connect 21 0 22 0;
#X connect 22 0 23 1;
#X connect 23 0 26 1;
#X connect 24 0 26 0;
#X connect 25 0 24 0;
#X connect 26 0 19 0;
#X connect 27 0 28 0;
#X connect 28 0 29 1;
#X connect 29 0 31 1;
#X connect 30 0 31 0;
#X connect 31 0 20 0;
#X connect 34 0 35 0;
#X connect 34 0 37 0;
#X connect 35 0 36 0;
#X connect 36 0 10 0;
#X connect 37 0 38 0;
#X connect 38 0 39 0;
#X connect 39 0 11 0;
#X restore 58 126 pd mixer_track1;
#X obj 58 99 inlet~;
#X obj 112 99 inlet~;
#X obj 172 99 inlet~;
#X obj 226 99 inlet~;
#X obj 286 99 inlet~;
#X obj 340 99 inlet~;
#N canvas 2694 239 881 614 mixer_track2 0;
#X obj 184 94 inlet~;
#X obj 241 95 inlet~;
#X obj 141 289 env~;
#X obj 313 293 env~;
#X obj 326 78 nbx 5 14 -1e+37 1e+37 0 0 empty empty empty 0 -8 0 10
-262144 -1 -1 100 256;
#X obj 296 100 / 100;
#X obj 203 140 *~;
#X obj 253 140 *~;
#X obj 237 183 *~;
#X obj 188 183 *~;
#X obj 188 226 env~;
#X obj 237 226 env~;
#X obj 31 63 nbx 5 14 -1e+37 1e+37 0 0 empty empty empty 0 -8 0 10
-262144 -1 -1 0 256;
#X obj 237 253 - 100;
#X obj 313 320 - 100;
#X obj 141 316 - 100;
#X obj 295 258 receive mixer_vumode;
#X obj 212 297 - 1;
#X obj 212 320 abs;
#X obj 212 344 *;
#X obj 184 297 *;
#X obj 188 251 - 100;
#X obj 184 369 +;
#X obj 273 297 - 1;
#X obj 273 320 abs;
#X obj 273 344 *;
#X obj 245 297 *;
#X obj 245 369 +;
#X obj 97 213 outlet~;
#X obj 314 212 outlet~;
#X obj 97 60 / 50;
#X obj 111 87 + 1;
#X obj 111 114 min 1;
#X obj 67 87 * -1;
#X obj 67 114 + 1;
#X obj 67 141 min 1;
#X obj 65 34 receive track2_bal;
#X obj 296 52 receive track2_vol;
#X obj 139 395 send track2_vu1;
#X obj 245 395 send track2_vu2;
#X connect 0 0 2 0;
#X connect 0 0 6 1;
#X connect 1 0 3 0;
#X connect 1 0 7 1;
#X connect 2 0 15 0;
#X connect 3 0 14 0;
#X connect 5 0 6 0;
#X connect 5 0 7 0;
#X connect 6 0 9 1;
#X connect 7 0 8 1;
#X connect 8 0 11 0;
#X connect 8 0 29 0;
#X connect 9 0 10 0;
#X connect 9 0 28 0;
#X connect 10 0 21 0;
#X connect 11 0 13 0;
#X connect 13 0 26 0;
#X connect 14 0 25 0;
#X connect 15 0 19 0;
#X connect 16 0 17 0;
#X connect 16 0 20 1;
#X connect 16 0 26 1;
#X connect 16 0 23 0;
#X connect 17 0 18 0;
#X connect 18 0 19 1;
#X connect 19 0 22 1;
#X connect 20 0 22 0;
#X connect 21 0 20 0;
#X connect 22 0 38 0;
#X connect 23 0 24 0;
#X connect 24 0 25 1;
#X connect 25 0 27 1;
#X connect 26 0 27 0;
#X connect 27 0 39 0;
#X connect 30 0 31 0;
#X connect 30 0 33 0;
#X connect 31 0 32 0;
#X connect 32 0 8 0;
#X connect 33 0 34 0;
#X connect 34 0 35 0;
#X connect 35 0 9 0;
#X connect 36 0 12 0;
#X connect 36 0 30 0;
#X connect 37 0 4 0;
#X connect 37 0 5 0;
#X restore 172 126 pd mixer_track2;
#X obj 400 99 inlet~;
#X obj 454 99 inlet~;
#N canvas 2694 239 881 614 mixer_track3 0;
#X obj 184 94 inlet~;
#X obj 241 95 inlet~;
#X obj 141 289 env~;
#X obj 313 293 env~;
#X obj 326 78 nbx 5 14 -1e+37 1e+37 0 0 empty empty empty 0 -8 0 10
-262144 -1 -1 100 256;
#X obj 296 100 / 100;
#X obj 203 140 *~;
#X obj 253 140 *~;
#X obj 237 183 *~;
#X obj 188 183 *~;
#X obj 188 226 env~;
#X obj 237 226 env~;
#X obj 31 63 nbx 5 14 -1e+37 1e+37 0 0 empty empty empty 0 -8 0 10
-262144 -1 -1 0 256;
#X obj 237 253 - 100;
#X obj 313 320 - 100;
#X obj 141 316 - 100;
#X obj 295 258 receive mixer_vumode;
#X obj 212 297 - 1;
#X obj 212 320 abs;
#X obj 212 344 *;
#X obj 184 297 *;
#X obj 188 251 - 100;
#X obj 184 369 +;
#X obj 273 297 - 1;
#X obj 273 320 abs;
#X obj 273 344 *;
#X obj 245 297 *;
#X obj 245 369 +;
#X obj 97 213 outlet~;
#X obj 314 212 outlet~;
#X obj 97 60 / 50;
#X obj 111 87 + 1;
#X obj 111 114 min 1;
#X obj 67 87 * -1;
#X obj 67 114 + 1;
#X obj 67 141 min 1;
#X obj 65 34 receive track3_bal;
#X obj 296 52 receive track3_vol;
#X obj 139 395 send track3_vu1;
#X obj 245 395 send track3_vu2;
#X connect 0 0 2 0;
#X connect 0 0 6 1;
#X connect 1 0 3 0;
#X connect 1 0 7 1;
#X connect 2 0 15 0;
#X connect 3 0 14 0;
#X connect 5 0 6 0;
#X connect 5 0 7 0;
#X connect 6 0 9 1;
#X connect 7 0 8 1;
#X connect 8 0 11 0;
#X connect 8 0 29 0;
#X connect 9 0 10 0;
#X connect 9 0 28 0;
#X connect 10 0 21 0;
#X connect 11 0 13 0;
#X connect 13 0 26 0;
#X connect 14 0 25 0;
#X connect 15 0 19 0;
#X connect 16 0 17 0;
#X connect 16 0 20 1;
#X connect 16 0 26 1;
#X connect 16 0 23 0;
#X connect 17 0 18 0;
#X connect 18 0 19 1;
#X connect 19 0 22 1;
#X connect 20 0 22 0;
#X connect 21 0 20 0;
#X connect 22 0 38 0;
#X connect 23 0 24 0;
#X connect 24 0 25 1;
#X connect 25 0 27 1;
#X connect 26 0 27 0;
#X connect 27 0 39 0;
#X connect 30 0 31 0;
#X connect 30 0 33 0;
#X connect 31 0 32 0;
#X connect 32 0 8 0;
#X connect 33 0 34 0;
#X connect 34 0 35 0;
#X connect 35 0 9 0;
#X connect 36 0 12 0;
#X connect 36 0 30 0;
#X connect 37 0 4 0;
#X connect 37 0 5 0;
#X restore 286 126 pd mixer_track3;
#N canvas 2694 235 881 614 mixer_track4 0;
#X obj 184 94 inlet~;
#X obj 241 95 inlet~;
#X obj 141 289 env~;
#X obj 313 293 env~;
#X obj 326 78 nbx 5 14 -1e+37 1e+37 0 0 empty empty empty 0 -8 0 10
-262144 -1 -1 100 256;
#X obj 296 100 / 100;
#X obj 203 140 *~;
#X obj 253 140 *~;
#X obj 237 183 *~;
#X obj 188 183 *~;
#X obj 188 226 env~;
#X obj 237 226 env~;
#X obj 31 63 nbx 5 14 -1e+37 1e+37 0 0 empty empty empty 0 -8 0 10
-262144 -1 -1 0 256;
#X obj 237 253 - 100;
#X obj 313 320 - 100;
#X obj 141 316 - 100;
#X obj 295 258 receive mixer_vumode;
#X obj 212 297 - 1;
#X obj 212 320 abs;
#X obj 212 344 *;
#X obj 184 297 *;
#X obj 188 251 - 100;
#X obj 184 369 +;
#X obj 273 297 - 1;
#X obj 273 320 abs;
#X obj 273 344 *;
#X obj 245 297 *;
#X obj 245 369 +;
#X obj 97 213 outlet~;
#X obj 314 212 outlet~;
#X obj 97 60 / 50;
#X obj 111 87 + 1;
#X obj 111 114 min 1;
#X obj 67 87 * -1;
#X obj 67 114 + 1;
#X obj 67 141 min 1;
#X obj 65 34 receive track4_bal;
#X obj 296 52 receive track4_vol;
#X obj 139 395 send track4_vu1;
#X obj 245 395 send track4_vu2;
#X connect 0 0 2 0;
#X connect 0 0 6 1;
#X connect 1 0 3 0;
#X connect 1 0 7 1;
#X connect 2 0 15 0;
#X connect 3 0 14 0;
#X connect 5 0 6 0;
#X connect 5 0 7 0;
#X connect 6 0 9 1;
#X connect 7 0 8 1;
#X connect 8 0 11 0;
#X connect 8 0 29 0;
#X connect 9 0 10 0;
#X connect 9 0 28 0;
#X connect 10 0 21 0;
#X connect 11 0 13 0;
#X connect 13 0 26 0;
#X connect 14 0 25 0;
#X connect 15 0 19 0;
#X connect 16 0 17 0;
#X connect 16 0 20 1;
#X connect 16 0 26 1;
#X connect 16 0 23 0;
#X connect 17 0 18 0;
#X connect 18 0 19 1;
#X connect 19 0 22 1;
#X connect 20 0 22 0;
#X connect 21 0 20 0;
#X connect 22 0 38 0;
#X connect 23 0 24 0;
#X connect 24 0 25 1;
#X connect 25 0 27 1;
#X connect 26 0 27 0;
#X connect 27 0 39 0;
#X connect 30 0 31 0;
#X connect 30 0 33 0;
#X connect 31 0 32 0;
#X connect 32 0 8 0;
#X connect 33 0 34 0;
#X connect 34 0 35 0;
#X connect 35 0 9 0;
#X connect 36 0 12 0;
#X connect 36 0 30 0;
#X connect 37 0 4 0;
#X connect 37 0 5 0;
#X restore 400 126 pd mixer_track4;
#N canvas 2714 316 881 614 mixer_master 0;
#X obj 184 94 inlet~;
#X obj 241 95 inlet~;
#X obj 141 289 env~;
#X obj 313 293 env~;
#X obj 326 78 nbx 5 14 -1e+37 1e+37 0 0 empty empty empty 0 -8 0 10
-262144 -1 -1 100 256;
#X obj 296 100 / 100;
#X obj 203 140 *~;
#X obj 253 140 *~;
#X obj 237 183 *~;
#X obj 188 183 *~;
#X obj 188 226 env~;
#X obj 237 226 env~;
#X obj 31 63 nbx 5 14 -1e+37 1e+37 0 0 empty empty empty 0 -8 0 10
-262144 -1 -1 0 256;
#X obj 237 253 - 100;
#X obj 313 320 - 100;
#X obj 141 316 - 100;
#X obj 295 258 receive mixer_vumode;
#X obj 212 297 - 1;
#X obj 212 320 abs;
#X obj 212 344 *;
#X obj 184 297 *;
#X obj 188 251 - 100;
#X obj 184 369 +;
#X obj 273 297 - 1;
#X obj 273 320 abs;
#X obj 273 344 *;
#X obj 245 297 *;
#X obj 245 369 +;
#X obj 97 213 outlet~;
#X obj 314 212 outlet~;
#X obj 97 60 / 50;
#X obj 111 87 + 1;
#X obj 111 114 min 1;
#X obj 67 87 * -1;
#X obj 67 114 + 1;
#X obj 67 141 min 1;
#X obj 65 34 receive master_bal;
#X obj 296 52 receive master_vol;
#X obj 139 395 send master_vu1;
#X obj 245 395 send master_vu2;
#X connect 0 0 2 0;
#X connect 0 0 6 1;
#X connect 1 0 3 0;
#X connect 1 0 7 1;
#X connect 2 0 15 0;
#X connect 3 0 14 0;
#X connect 5 0 6 0;
#X connect 5 0 7 0;
#X connect 6 0 9 1;
#X connect 7 0 8 1;
#X connect 8 0 11 0;
#X connect 8 0 29 0;
#X connect 9 0 10 0;
#X connect 9 0 28 0;
#X connect 10 0 21 0;
#X connect 11 0 13 0;
#X connect 13 0 26 0;
#X connect 14 0 25 0;
#X connect 15 0 19 0;
#X connect 16 0 17 0;
#X connect 16 0 20 1;
#X connect 16 0 26 1;
#X connect 16 0 23 0;
#X connect 17 0 18 0;
#X connect 18 0 19 1;
#X connect 19 0 22 1;
#X connect 20 0 22 0;
#X connect 21 0 20 0;
#X connect 22 0 38 0;
#X connect 23 0 24 0;
#X connect 24 0 25 1;
#X connect 25 0 27 1;
#X connect 26 0 27 0;
#X connect 27 0 39 0;
#X connect 30 0 31 0;
#X connect 30 0 33 0;
#X connect 31 0 32 0;
#X connect 32 0 8 0;
#X connect 33 0 34 0;
#X connect 34 0 35 0;
#X connect 35 0 9 0;
#X connect 36 0 12 0;
#X connect 36 0 30 0;
#X connect 37 0 4 0;
#X connect 37 0 5 0;
#X restore 208 254 pd mixer_master;
#X connect 0 0 4 0;
#X connect 1 0 5 0;
#X connect 4 0 6 0;
#X connect 5 0 7 0;
#X connect 6 0 20 1;
#X connect 7 0 20 0;
#X connect 8 0 1 0;
#X connect 8 1 0 0;
#X connect 9 0 8 0;
#X connect 10 0 8 1;
#X connect 11 0 15 0;
#X connect 12 0 15 1;
#X connect 13 0 18 0;
#X connect 14 0 18 1;
#X connect 15 0 1 1;
#X connect 15 1 0 1;
#X connect 16 0 19 0;
#X connect 17 0 19 1;
#X connect 18 0 5 1;
#X connect 18 1 4 1;
#X connect 19 0 7 1;
#X connect 19 1 6 1;
#X connect 20 0 2 0;
#X connect 20 1 3 0;
#X restore 493 307 pd mixer ........;
#X obj 493 329 dac~;
#X obj 18 -23 cnv 15 464 369 empty empty SUPER-MIXMASTER-4000 10 20
0 22 -185360 -261234 0;
#X obj 38 25 cnv 15 58 300 empty empty empty 4 8 0 10 -86277 -66577
0;
#X obj 48 191 nbx 3 14 -1e+37 1e+37 0 0 empty empty empty 0 -8 0 10
-86277 -261234 -1 100 256;
#X obj 48 254 knob 32 32 -50 50 0 0 track1_bal empty empty 0 -12 0
8 -185360 -261234 -1 1550 1;
#X obj 48 293 nbx 3 14 -1e+37 1e+37 0 0 empty empty empty 0 -8 0 10
-86277 -261234 -1 0 256;
#X obj 48 69 vsl 15 119 0 125 0 0 track1_vol empty empty 0 -9 0 10
-185360 -261234 -1 9440 1;
#X obj 48 215 bng 15 250 50 0 empty mixer_reset empty 17 7 0 10 -185360
-261234 -1;
#X obj 48 35 bng 15 250 50 0 empty mixer_reset empty 17 7 0 10 -185360
-261234 -1;
#X msg 48 50 100;
#X obj 64 69 vu 8 120 track1_vu1 empty -1 -8 0 10 -86277 -86277 1 0
;
#X obj 74 69 vu 8 120 track1_vu2 empty -1 -8 0 10 -86277 -86277 1 0
;
#X msg 48 230 0;
#X obj 97 25 cnv 15 15 300 empty empty empty 20 12 0 14 -185360 -66577
0;
#X obj 107 25 cnv 15 58 300 empty empty empty 4 8 0 10 -86277 -66577
0;
#X obj 117 191 nbx 3 14 -1e+37 1e+37 0 0 empty empty empty 0 -8 0 10
-86277 -261234 -1 100 256;
#X obj 117 254 knob 32 32 -50 50 0 0 track2_bal empty empty 0 -12 0
8 -185360 -261234 -1 1550 1;
#X obj 117 293 nbx 3 14 -1e+37 1e+37 0 0 empty empty empty 0 -8 0 10
-86277 -261234 -1 0 256;
#X obj 117 69 vsl 15 119 0 125 0 0 track2_vol empty empty 0 -9 0 10
-185360 -261234 -1 9440 1;
#X obj 117 215 bng 15 250 50 0 empty mixer_reset empty 17 7 0 10 -185360
-261234 -1;
#X obj 117 35 bng 15 250 50 0 empty mixer_reset empty 17 7 0 10 -185360
-261234 -1;
#X msg 117 50 100;
#X obj 133 69 vu 8 120 track2_vu1 empty -1 -8 0 10 -86277 -86277 1
0;
#X obj 143 69 vu 8 120 track2_vu2 empty -1 -8 0 10 -86277 -86277 1
0;
#X msg 117 230 0;
#X obj 166 25 cnv 15 15 300 empty empty empty 20 12 0 14 -185360 -66577
0;
#X obj 176 25 cnv 15 58 300 empty empty empty 4 8 0 10 -86277 -66577
0;
#X obj 186 191 nbx 3 14 -1e+37 1e+37 0 0 empty empty empty 0 -8 0 10
-86277 -261234 -1 100 256;
#X obj 186 254 knob 32 32 -50 50 0 0 track3_bal empty empty 0 -12 0
8 -185360 -261234 -1 1550 1;
#X obj 186 293 nbx 3 14 -1e+37 1e+37 0 0 empty empty empty 0 -8 0 10
-86277 -261234 -1 0 256;
#X obj 186 69 vsl 15 119 0 125 0 0 track3_vol empty empty 0 -9 0 10
-185360 -261234 -1 9440 1;
#X obj 186 215 bng 15 250 50 0 empty mixer_reset empty 17 7 0 10 -185360
-261234 -1;
#X obj 186 35 bng 15 250 50 0 empty mixer_reset empty 17 7 0 10 -185360
-261234 -1;
#X msg 186 50 100;
#X obj 202 69 vu 8 120 track3_vu1 empty -1 -8 0 10 -86277 -86277 1
0;
#X obj 212 69 vu 8 120 track3_vu2 empty -1 -8 0 10 -86277 -86277 1
0;
#X msg 186 230 0;
#X obj 235 25 cnv 15 15 300 empty empty empty 20 12 0 14 -185360 -66577
0;
#X obj 245 25 cnv 15 58 300 empty empty empty 4 8 0 10 -86277 -66577
0;
#X obj 255 191 nbx 3 14 -1e+37 1e+37 0 0 empty empty empty 0 -8 0 10
-86277 -261234 -1 100 256;
#X obj 255 254 knob 32 32 -50 50 0 0 track4_bal empty empty 0 -12 0
8 -185360 -261234 -1 1550 1;
#X obj 255 293 nbx 3 14 -1e+37 1e+37 0 0 empty empty empty 0 -8 0 10
-86277 -261234 -1 0 256;
#X obj 255 69 vsl 15 119 0 125 0 0 track4_vol empty empty 0 -9 0 10
-185360 -261234 -1 9440 1;
#X obj 255 215 bng 15 250 50 0 empty mixer_reset empty 17 7 0 10 -185360
-261234 -1;
#X obj 255 35 bng 15 250 50 0 empty mixer_reset empty 17 7 0 10 -185360
-261234 -1;
#X msg 255 50 100;
#X obj 271 69 vu 8 120 track4_vu1 empty -1 -8 0 10 -86277 -86277 1
0;
#X obj 281 69 vu 8 120 track4_vu2 empty -1 -8 0 10 -86277 -86277 1
0;
#X msg 255 230 0;
#X obj 304 25 cnv 15 45 300 empty empty empty 20 12 0 14 -185360 -66577
0;
#X obj 334 25 cnv 15 58 300 empty empty empty 4 8 0 10 -86277 -66577
0;
#X obj 344 191 nbx 3 14 -1e+37 1e+37 0 0 empty empty empty 0 -8 0 10
-86277 -261234 -1 100 256;
#X obj 344 254 knob 32 32 -50 50 0 0 master_bal empty empty 0 -12 0
8 -185360 -261234 -1 1550 1;
#X obj 344 293 nbx 3 14 -1e+37 1e+37 0 0 empty empty empty 0 -8 0 10
-86277 -261234 -1 0 256;
#X obj 344 69 vsl 15 119 0 125 0 0 master_vol empty empty 0 -9 0 10
-185360 -261234 -1 9440 1;
#X obj 344 215 bng 15 250 50 0 empty mixer_reset empty 17 7 0 10 -185360
-261234 -1;
#X obj 344 35 bng 15 250 50 0 empty mixer_reset empty 17 7 0 10 -185360
-261234 -1;
#X msg 344 50 100;
#X obj 360 69 vu 8 120 master_vu1 empty -1 -8 0 10 -86277 -86277 1
0;
#X obj 370 69 vu 8 120 master_vu2 empty -1 -8 0 10 -86277 -86277 1
0;
#X msg 344 230 0;
#X obj 393 25 cnv 15 45 300 empty empty empty 20 12 0 14 -185360 -66577
0;
#X obj 403 58 cnv 15 58 60 empty empty VU_METER 4 8 0 10 -86277 -261234
0;
#X obj 408 81 vradio 15 1 0 2 mixer_vumode mixer_reset empty 0 -8 0
10 -185360 -261234 -1 0;
#X obj 403 25 cnv 15 58 30 empty empty empty 4 8 0 10 -86277 -261234
0;
#X obj 408 33 bng 15 250 50 0 mixer_reset empty reset 17 7 0 10 -185360
-261234 -261234;
#X text 403 86 comment;
#X text 415 74 comment;
#X obj 428 80 comment 0 10 helvetica ? 0 252 196 196 pre;
#X obj 428 95 comment 0 10 helvetica ? 0 252 196 196 post;
#N canvas 3157 584 450 300 init 0;
#X obj -736 53 bng 15 250 50 0 mixer_reset empty empty 17 7 0 10 -262144
-1 -1;
#X obj -736 26 loadbang;
#X msg -736 80 \; pd dsp 1;
#X connect 0 0 2 0;
#X connect 1 0 0 0;
#X restore 415 308 pd init;
#X connect 0 0 1 0;
#X connect 0 1 1 1;
#X connect 5 0 6 0;
#X connect 7 0 4 0;
#X connect 8 0 13 0;
#X connect 9 0 10 0;
#X connect 10 0 7 0;
#X connect 13 0 5 0;
#X connect 17 0 18 0;
#X connect 19 0 16 0;
#X connect 20 0 25 0;
#X connect 21 0 22 0;
#X connect 22 0 19 0;
#X connect 25 0 17 0;
#X connect 29 0 30 0;
#X connect 31 0 28 0;
#X connect 32 0 37 0;
#X connect 33 0 34 0;
#X connect 34 0 31 0;
#X connect 37 0 29 0;
#X connect 41 0 42 0;
#X connect 43 0 40 0;
#X connect 44 0 49 0;
#X connect 45 0 46 0;
#X connect 46 0 43 0;
#X connect 49 0 41 0;
#X connect 53 0 54 0;
#X connect 55 0 52 0;
#X connect 56 0 61 0;
#X connect 57 0 58 0;
#X connect 58 0 55 0;
#X connect 61 0 53 0;
