#N canvas 345 197 820 404 10;
#X obj 13 -34 osc~ 440;
#X obj 310 146 nbx 5 14 -1e+37 1e+37 0 0 empty empty empty 0 -8 0 10
-262144 -1 -1 100 256;
#X obj 310 209 knob 32 32 0 100 0 0 track1_bal empty empty 0 -12 0
8 -262144 -1 -1 1550 1;
#X obj 310 248 nbx 5 14 -1e+37 1e+37 0 0 empty empty empty 0 -8 0 10
-262144 -1 -1 50 256;
#X obj 122 212 dac~;
#X obj 310 24 vsl 15 119 0 125 0 0 track1_vol empty empty 0 -9 0 10
-262144 -1 -1 9440 1;
#X obj 374 146 nbx 5 14 -1e+37 1e+37 0 0 empty empty empty 0 -8 0 10
-262144 -1 -1 100 256;
#X obj 374 209 knob 32 32 0 100 0 0 track2_bal empty empty 0 -12 0
8 -262144 -1 -1 1550 1;
#X obj 374 248 nbx 5 14 -1e+37 1e+37 0 0 empty empty empty 0 -8 0 10
-262144 -1 -1 50 256;
#X obj 374 24 vsl 15 119 0 125 0 0 track2_vol empty empty 0 -9 0 10
-262144 -1 -1 9440 1;
#X obj 586 146 nbx 5 14 -1e+37 1e+37 0 0 empty empty empty 0 -8 0 10
-262144 -1 -1 2.54237 256;
#X obj 586 209 knob 32 32 0 100 0 0 master_bal empty empty 0 -12 0
8 -262144 -1 -1 1550 1;
#X obj 586 248 nbx 5 14 -1e+37 1e+37 0 0 empty empty empty 0 -8 0 10
-262144 -1 -1 50 256;
#X obj 586 24 vsl 15 119 0 125 0 0 master_vol empty empty 0 -9 0 10
-262144 -1 -1 240 1;
#N canvas 1224 92 1280 929 mixer 0;
#X obj 117 14 inlet~;
#X obj 167 14 inlet~;
#X obj 60 41 env~;
#X obj 177 41 env~;
#X obj 196 121 receive track1_vol;
#X obj -16 131 receive track1_bal;
#X obj 226 147 nbx 5 14 -1e+37 1e+37 0 0 empty empty empty 0 -8 0 10
-262144 -1 -1 100 256;
#X obj 196 169 / 100;
#X obj 103 209 *~;
#X obj 153 209 *~;
#X obj 137 252 *~;
#X obj 34 161 / 100;
#X obj 88 252 *~;
#X obj 19 216 -;
#X msg 1 190 1;
#X obj 88 279 env~;
#X obj 137 279 env~;
#X obj -31 161 nbx 5 14 -1e+37 1e+37 0 0 empty empty empty 0 -8 0 10
-262144 -1 -1 50 256;
#X obj 137 306 - 100;
#X obj 112 340 vu 8 80 empty empty -1 -8 0 10 -66577 -262144 1 0;
#X obj 88 304 - 100;
#X obj 122 340 vu 8 80 empty empty -1 -8 0 10 -66577 -262144 1 0;
#X obj 136 101 vu 8 80 empty empty -1 -8 0 10 -66577 -262144 1 0;
#X obj 146 101 vu 8 80 empty empty -1 -8 0 10 -66577 -262144 1 0;
#X obj 177 68 - 100;
#X obj 60 68 - 100;
#X obj 528 16 inlet~;
#X obj 578 16 inlet~;
#X obj 471 43 env~;
#X obj 588 43 env~;
#X obj 637 149 nbx 5 14 -1e+37 1e+37 0 0 empty empty empty 0 -8 0 10
-262144 -1 -1 100 256;
#X obj 607 171 / 100;
#X obj 514 211 *~;
#X obj 564 211 *~;
#X obj 548 254 *~;
#X obj 459 163 / 100;
#X obj 499 254 *~;
#X obj 444 218 -;
#X msg 426 180 1;
#X obj 499 281 env~;
#X obj 548 281 env~;
#X obj 378 161 nbx 5 14 -1e+37 1e+37 0 0 empty empty empty 0 -8 0 10
-262144 -1 -1 50 256;
#X obj 548 308 - 100;
#X obj 526 341 vu 8 80 empty empty -1 -8 0 10 -66577 -262144 1 0;
#X obj 499 306 - 100;
#X obj 536 341 vu 8 80 empty empty -1 -8 0 10 -66577 -262144 1 0;
#X obj 547 103 vu 8 80 empty empty -1 -8 0 10 -66577 -262144 1 0;
#X obj 557 103 vu 8 80 empty empty -1 -8 0 10 -66577 -262144 1 0;
#X obj 588 70 - 100;
#X obj 471 70 - 100;
#X obj 535 524 +~;
#X obj 478 524 +~;
#X obj 467 767 outlet~;
#X obj 525 767 outlet~;
#X obj 417 767 env~;
#X obj 584 767 env~;
#X obj 584 794 - 100;
#X obj 499 824 vu 8 80 empty empty -1 -8 0 10 -66577 -262144 1 0;
#X obj 417 792 - 100;
#X obj 509 824 vu 8 80 empty empty -1 -8 0 10 -66577 -262144 1 0;
#X obj 395 133 receive track2_bal;
#X obj 607 123 receive track2_vol;
#X obj 600 581 receive master_vol;
#X obj 361 577 receive master_bal;
#X obj 584 611 nbx 5 14 -1e+37 1e+37 0 0 empty empty empty 0 -8 0 10
-262144 -1 -1 2.54237 256;
#X obj 358 609 nbx 5 14 -1e+37 1e+37 0 0 empty empty empty 0 -8 0 10
-262144 -1 -1 50 256;
#X obj 483 649 *~;
#X obj 645 611 / 100;
#X obj 541 649 *~;
#X obj 423 606 / 100;
#X msg 394 636 1;
#X obj 408 665 -;
#X obj 468 710 *~;
#X obj 526 710 *~;
#X obj 893 14 inlet~;
#X obj 943 14 inlet~;
#X obj 836 41 env~;
#X obj 953 41 env~;
#X obj 1002 147 nbx 5 14 -1e+37 1e+37 0 0 empty empty empty 0 -8 0
10 -262144 -1 -1 100 256;
#X obj 972 169 / 100;
#X obj 879 209 *~;
#X obj 929 209 *~;
#X obj 913 252 *~;
#X obj 824 161 / 100;
#X obj 864 252 *~;
#X obj 809 216 -;
#X msg 791 190 1;
#X obj 864 279 env~;
#X obj 913 279 env~;
#X obj 751 160 nbx 5 14 -1e+37 1e+37 0 0 empty empty empty 0 -8 0 10
-262144 -1 -1 50 256;
#X obj 913 306 - 100;
#X obj 891 339 vu 8 80 empty empty -1 -8 0 10 -66577 -262144 1 0;
#X obj 864 304 - 100;
#X obj 901 339 vu 8 80 empty empty -1 -8 0 10 -66577 -262144 1 0;
#X obj 912 101 vu 8 80 empty empty -1 -8 0 10 -66577 -262144 1 0;
#X obj 922 101 vu 8 80 empty empty -1 -8 0 10 -66577 -262144 1 0;
#X obj 953 68 - 100;
#X obj 836 68 - 100;
#X obj 545 551 +~;
#X obj 488 551 +~;
#X obj 1258 17 inlet~;
#X obj 1308 17 inlet~;
#X obj 1201 44 env~;
#X obj 1318 44 env~;
#X obj 1367 150 nbx 5 14 -1e+37 1e+37 0 0 empty empty empty 0 -8 0
10 -262144 -1 -1 100 256;
#X obj 1337 172 / 100;
#X obj 1244 212 *~;
#X obj 1294 212 *~;
#X obj 1278 255 *~;
#X obj 1189 164 / 100;
#X obj 1229 255 *~;
#X obj 1174 219 -;
#X msg 1156 193 1;
#X obj 1229 282 env~;
#X obj 1278 282 env~;
#X obj 1116 163 nbx 5 14 -1e+37 1e+37 0 0 empty empty empty 0 -8 0
10 -262144 -1 -1 50 256;
#X obj 1278 309 - 100;
#X obj 1256 342 vu 8 80 empty empty -1 -8 0 10 -66577 -262144 1 0;
#X obj 1229 307 - 100;
#X obj 1266 342 vu 8 80 empty empty -1 -8 0 10 -66577 -262144 1 0;
#X obj 1277 104 vu 8 80 empty empty -1 -8 0 10 -66577 -262144 1 0;
#X obj 1287 104 vu 8 80 empty empty -1 -8 0 10 -66577 -262144 1 0;
#X obj 1318 71 - 100;
#X obj 1201 71 - 100;
#X obj 555 579 +~;
#X obj 498 578 +~;
#X obj 760 131 receive track3_bal;
#X obj 972 121 receive track3_vol;
#X obj 1125 134 receive track4_bal;
#X obj 1337 124 receive track4_vol;
#X connect 0 0 2 0;
#X connect 0 0 8 1;
#X connect 1 0 3 0;
#X connect 1 0 9 1;
#X connect 2 0 25 0;
#X connect 3 0 24 0;
#X connect 4 0 6 0;
#X connect 4 0 7 0;
#X connect 5 0 11 0;
#X connect 5 0 17 0;
#X connect 7 0 8 0;
#X connect 7 0 9 0;
#X connect 8 0 12 1;
#X connect 9 0 10 1;
#X connect 10 0 16 0;
#X connect 10 0 50 0;
#X connect 11 0 10 0;
#X connect 11 0 13 1;
#X connect 11 0 14 0;
#X connect 12 0 15 0;
#X connect 12 0 51 0;
#X connect 13 0 12 0;
#X connect 14 0 13 0;
#X connect 15 0 20 0;
#X connect 16 0 18 0;
#X connect 18 0 21 0;
#X connect 20 0 19 0;
#X connect 24 0 23 0;
#X connect 25 0 22 0;
#X connect 26 0 28 0;
#X connect 26 0 32 1;
#X connect 27 0 29 0;
#X connect 27 0 33 1;
#X connect 28 0 49 0;
#X connect 29 0 48 0;
#X connect 31 0 32 0;
#X connect 31 0 33 0;
#X connect 32 0 36 1;
#X connect 33 0 34 1;
#X connect 34 0 40 0;
#X connect 34 0 50 1;
#X connect 35 0 34 0;
#X connect 35 0 37 1;
#X connect 35 0 38 0;
#X connect 36 0 39 0;
#X connect 36 0 51 1;
#X connect 37 0 36 0;
#X connect 38 0 37 0;
#X connect 39 0 44 0;
#X connect 40 0 42 0;
#X connect 42 0 45 0;
#X connect 44 0 43 0;
#X connect 48 0 47 0;
#X connect 49 0 46 0;
#X connect 50 0 98 0;
#X connect 51 0 99 0;
#X connect 54 0 58 0;
#X connect 55 0 56 0;
#X connect 56 0 59 0;
#X connect 58 0 57 0;
#X connect 60 0 35 0;
#X connect 60 0 41 0;
#X connect 61 0 30 0;
#X connect 61 0 31 0;
#X connect 62 0 64 0;
#X connect 62 0 67 0;
#X connect 63 0 65 0;
#X connect 63 0 69 0;
#X connect 66 0 72 1;
#X connect 67 0 66 0;
#X connect 67 0 68 0;
#X connect 68 0 73 1;
#X connect 69 0 71 1;
#X connect 69 0 70 0;
#X connect 69 0 73 0;
#X connect 70 0 71 0;
#X connect 71 0 72 0;
#X connect 72 0 52 0;
#X connect 72 0 54 0;
#X connect 73 0 53 0;
#X connect 73 0 55 0;
#X connect 74 0 76 0;
#X connect 74 0 80 1;
#X connect 75 0 77 0;
#X connect 75 0 81 1;
#X connect 76 0 97 0;
#X connect 77 0 96 0;
#X connect 79 0 80 0;
#X connect 79 0 81 0;
#X connect 80 0 84 1;
#X connect 81 0 82 1;
#X connect 82 0 88 0;
#X connect 82 0 98 1;
#X connect 83 0 82 0;
#X connect 83 0 85 1;
#X connect 83 0 86 0;
#X connect 84 0 87 0;
#X connect 84 0 99 1;
#X connect 85 0 84 0;
#X connect 86 0 85 0;
#X connect 87 0 92 0;
#X connect 88 0 90 0;
#X connect 90 0 93 0;
#X connect 92 0 91 0;
#X connect 96 0 95 0;
#X connect 97 0 94 0;
#X connect 98 0 124 0;
#X connect 99 0 125 0;
#X connect 100 0 102 0;
#X connect 100 0 106 1;
#X connect 101 0 103 0;
#X connect 101 0 107 1;
#X connect 102 0 123 0;
#X connect 103 0 122 0;
#X connect 105 0 106 0;
#X connect 105 0 107 0;
#X connect 106 0 110 1;
#X connect 107 0 108 1;
#X connect 108 0 114 0;
#X connect 108 0 124 1;
#X connect 109 0 108 0;
#X connect 109 0 111 1;
#X connect 109 0 112 0;
#X connect 110 0 113 0;
#X connect 110 0 125 1;
#X connect 111 0 110 0;
#X connect 112 0 111 0;
#X connect 113 0 118 0;
#X connect 114 0 116 0;
#X connect 116 0 119 0;
#X connect 118 0 117 0;
#X connect 122 0 121 0;
#X connect 123 0 120 0;
#X connect 124 0 68 1;
#X connect 125 0 66 1;
#X connect 126 0 83 0;
#X connect 126 0 89 0;
#X connect 127 0 78 0;
#X connect 127 0 79 0;
#X connect 128 0 109 0;
#X connect 128 0 115 0;
#X connect 129 0 104 0;
#X connect 129 0 105 0;
#X restore 88 180 pd mixer ........;
#X obj 100 -39 osc~ 230;
#X obj 438 146 nbx 5 14 -1e+37 1e+37 0 0 empty empty empty 0 -8 0 10
-262144 -1 -1 100 256;
#X obj 438 209 knob 32 32 0 100 0 0 track3_bal empty empty 0 -12 0
8 -262144 -1 -1 1550 1;
#X obj 438 248 nbx 5 14 -1e+37 1e+37 0 0 empty empty empty 0 -8 0 10
-262144 -1 -1 50 256;
#X obj 438 24 vsl 15 119 0 125 0 0 track3_vol empty empty 0 -9 0 10
-262144 -1 -1 9440 1;
#X obj 502 146 nbx 5 14 -1e+37 1e+37 0 0 empty empty empty 0 -8 0 10
-262144 -1 -1 100 256;
#X obj 502 209 knob 32 32 0 100 0 0 track4_bal empty empty 0 -12 0
8 -262144 -1 -1 1550 1;
#X obj 502 248 nbx 5 14 -1e+37 1e+37 0 0 empty empty empty 0 -8 0 10
-262144 -1 -1 50 256;
#X obj 502 24 vsl 15 119 0 125 0 0 track4_vol empty empty 0 -9 0 10
-262144 -1 -1 9440 1;
#X obj 127 -8 osc~ 81;
#X obj 192 -11 osc~ 1231;
#X obj 310 170 bng 15 250 50 0 empty mixer_reset empty 17 7 0 10 -262144
-1 -1;
#X msg 310 185 50;
#X msg 374 185 50;
#X msg 438 185 50;
#X msg 502 185 50;
#X msg 586 185 50;
#X obj 374 170 bng 15 250 50 0 empty mixer_reset empty 17 7 0 10 -262144
-1 -1;
#X obj 438 170 bng 15 250 50 0 empty mixer_reset empty 17 7 0 10 -262144
-1 -1;
#X obj 502 170 bng 15 250 50 0 empty mixer_reset empty 17 7 0 10 -262144
-1 -1;
#X obj 586 170 bng 15 250 50 0 empty mixer_reset empty 17 7 0 10 -262144
-1 -1;
#X obj 310 -10 bng 15 250 50 0 empty mixer_reset empty 17 7 0 10 -262144
-1 -1;
#X obj 374 -10 bng 15 250 50 0 empty mixer_reset empty 17 7 0 10 -262144
-1 -1;
#X obj 438 -10 bng 15 250 50 0 empty mixer_reset empty 17 7 0 10 -262144
-1 -1;
#X obj 502 -10 bng 15 250 50 0 empty mixer_reset empty 17 7 0 10 -262144
-1 -1;
#X obj 586 -10 bng 15 250 50 0 empty mixer_reset empty 17 7 0 10 -262144
-1 -1;
#X msg 502 5 100;
#X msg 586 5 100;
#X msg 438 5 100;
#X msg 374 5 100;
#X msg 310 5 100;
#X obj 326 24 vu 8 120 empty empty -1 -8 0 10 -66577 -262144 1 0;
#X obj 336 24 vu 8 120 empty empty -1 -8 0 10 -66577 -262144 1 0;
#X obj 390 24 vu 8 120 empty empty -1 -8 0 10 -66577 -262144 1 0;
#X obj 400 24 vu 8 120 empty empty -1 -8 0 10 -66577 -262144 1 0;
#X obj 454 24 vu 8 120 empty empty -1 -8 0 10 -66577 -262144 1 0;
#X obj 464 24 vu 8 120 empty empty -1 -8 0 10 -66577 -262144 1 0;
#X obj 518 24 vu 8 120 empty empty -1 -8 0 10 -66577 -262144 1 0;
#X obj 528 24 vu 8 120 empty empty -1 -8 0 10 -66577 -262144 1 0;
#X obj 602 24 vu 8 120 empty empty -1 -8 0 10 -66577 -262144 1 0;
#X obj 612 24 vu 8 120 empty empty -1 -8 0 10 -66577 -262144 1 0;
#X obj 666 23 cnv 15 58 60 empty empty VU_METER 4 8 0 10 -233017 -66577
0;
#X obj 671 46 vradio 15 1 0 2 empty empty empty 0 -8 0 10 -262144 -1
-1 0;
#X text 688 42 pre;
#X text 688 57 post;
#X obj 666 -10 cnv 15 58 30 empty empty empty 4 8 0 10 -233017 -66577
0;
#X obj 671 -2 bng 15 250 50 0 mixer_reset empty reset 17 7 0 10 -262144
-1 -1;
#X connect 0 0 14 0;
#X connect 0 0 14 1;
#X connect 2 0 3 0;
#X connect 5 0 1 0;
#X connect 7 0 8 0;
#X connect 9 0 6 0;
#X connect 11 0 12 0;
#X connect 13 0 10 0;
#X connect 14 0 4 0;
#X connect 14 1 4 1;
#X connect 15 0 14 2;
#X connect 15 0 14 3;
#X connect 17 0 18 0;
#X connect 19 0 16 0;
#X connect 21 0 22 0;
#X connect 23 0 20 0;
#X connect 24 0 14 4;
#X connect 24 0 14 5;
#X connect 25 0 14 6;
#X connect 25 0 14 7;
#X connect 26 0 27 0;
#X connect 27 0 2 0;
#X connect 28 0 7 0;
#X connect 29 0 17 0;
#X connect 30 0 21 0;
#X connect 31 0 11 0;
#X connect 32 0 28 0;
#X connect 33 0 29 0;
#X connect 34 0 30 0;
#X connect 35 0 31 0;
#X connect 36 0 45 0;
#X connect 37 0 44 0;
#X connect 38 0 43 0;
#X connect 39 0 41 0;
#X connect 40 0 42 0;
#X connect 41 0 23 0;
#X connect 42 0 13 0;
#X connect 43 0 19 0;
#X connect 44 0 9 0;
#X connect 45 0 5 0;
