#N canvas 2300 177 584 304 10;
#X obj 43 32 cnv 15 418 224 empty empty ponyoTimer 10 20 0 22 -185360
-261682 0;
#X obj 54 76 cnv 15 66 60 empty empty empty 4 8 0 10 -86277 -261234
0;
#X obj 60 111 bng 15 250 50 0 timer_reset empty reset 17 7 0 10 -185360
-261234 -261234;
#X obj 123 76 cnv 15 53 168 empty empty empty 4 8 0 10 -86277 -261234
0;
#X obj 430 43 bng 20 100 50 0 empty timer_finalpush empty 17 8 0 10
-86277 -261234 -261234;
#X obj 391 49 nbx 3 14 -1e+37 1e+37 0 0 empty timer_finalbpm empty
0 -8 0 10 -86277 -261234 -261234 125.019 256;
#X obj 132 221 nbx 3 14 -1e+37 1e+37 0 0 empty empty empty 0 -8 0 10
-86277 -261234 -1 125.019 256;
#X obj 132 132 vsl 15 86 40 500 0 0 timer_bpm empty bpm 0 -42 0 10
-185360 -261234 -261234 1571 1;
#X obj 132 98 bng 15 250 50 0 empty timer_reset empty 17 7 0 10 -185360
-261234 -1;
#N canvas 2809 288 976 699 timer 1;
#X obj 212 -103 bng 15 250 50 0 timer_reset empty empty 17 7 0 10 -262144
-1 -1;
#X obj 212 -130 loadbang;
#X obj 185 101 tgl 15 0 empty empty empty 17 7 0 10 -262144 -1 -1 1
1;
#X obj 247 -4 nbx 5 14 -1e+37 1e+37 0 0 empty empty empty 0 -8 0 10
-262144 -1 -1 125.019 256;
#X obj 205 242 metro 1000;
#X obj 205 269 bng 15 100 50 0 timer_finalpush empty empty 17 7 0 10
-262144 -1 -1;
#X obj 205 74 r timer_run;
#X obj 307 -31 r timer_bpm;
#X obj 337 163 s timer_finalbpm;
#X obj 426 -213 r timer_lfo_bpm;
#X obj 363 -186 nbx 5 14 -1e+37 1e+37 0 0 empty empty empty 0 -8 0
10 -262144 -1 -1 124.998 256;
#X obj 426 -186 / 240;
#X obj 426 -159 osc~;
#X obj 470 -159 metro 5;
#X obj 470 -186 loadbang;
#X obj 426 -132 snapshot~;
#X obj 436 -105 nbx 5 14 -1e+37 1e+37 0 0 empty empty empty 0 -8 0
10 -262144 -1 -1 -0.946281 256;
#X obj 426 -54 *;
#X obj 441 -81 r timer_lfo_width;
#X obj 461 -54 nbx 5 14 -1e+37 1e+37 0 0 empty empty empty 0 -8 0 10
-262144 -1 -1 0 256;
#X obj 426 -27 nbx 5 14 -1e+37 1e+37 0 0 empty empty empty 0 -8 0 10
-262144 -1 -1 0 256;
#X obj 358 -4 / 100;
#X obj 343 23 *;
#X obj 353 50 nbx 5 14 -1e+37 1e+37 0 0 empty empty empty 0 -8 0 10
-262144 -1 -1 0 256;
#X obj 307 74 +;
#X obj 327 190 nbx 5 14 -1e+37 1e+37 0 0 empty empty empty 0 -8 0 10
-262144 -1 -1 125.019 256;
#X obj 313 49 bng 15 250 50 0 empty empty empty 17 7 0 10 -262144 -1
-1;
#X msg 274 163 60;
#X obj 292 190 /;
#X obj 292 217 * 1000;
#X obj 235 269 outlet;
#X obj 292 126 *;
#X obj 292 101 bng 15 250 50 0 empty empty empty 17 7 0 10 -262144
-1 -1;
#X msg 212 -78 \; pd dsp 1;
#X obj 225 121 bng 15 250 50 0 empty empty empty 17 7 0 10 -262144
-1 -1;
#X connect 0 0 33 0;
#X connect 1 0 0 0;
#X connect 4 0 5 0;
#X connect 4 0 30 0;
#X connect 6 0 2 0;
#X connect 6 0 4 0;
#X connect 6 0 31 0;
#X connect 6 0 34 0;
#X connect 7 0 3 0;
#X connect 7 0 21 0;
#X connect 7 0 24 0;
#X connect 9 0 10 0;
#X connect 9 0 11 0;
#X connect 11 0 12 0;
#X connect 12 0 15 0;
#X connect 13 0 15 0;
#X connect 14 0 13 0;
#X connect 15 0 16 0;
#X connect 15 0 17 0;
#X connect 17 0 20 0;
#X connect 17 0 22 0;
#X connect 18 0 17 1;
#X connect 18 0 19 0;
#X connect 21 0 22 1;
#X connect 22 0 23 0;
#X connect 22 0 24 1;
#X connect 22 0 26 0;
#X connect 24 0 31 1;
#X connect 24 0 32 0;
#X connect 26 0 24 0;
#X connect 27 0 28 0;
#X connect 28 0 29 0;
#X connect 29 0 4 1;
#X connect 31 0 8 0;
#X connect 31 0 25 0;
#X connect 31 0 28 1;
#X connect 31 0 27 0;
#X connect 32 0 31 0;
#X connect 34 0 4 0;
#X restore 472 239 pd timer;
#X msg 132 113 125;
#X obj 179 76 cnv 15 106 168 empty empty LFO 4 8 0 10 -86277 -261234
0;
#X obj 192 221 nbx 3 14 -1e+37 1e+37 0 0 empty empty empty 0 -8 0 10
-86277 -261234 -1 0 256;
#X obj 192 144 vsl 15 74 0 80 0 0 timer_lfo_width empty width 0 -42
0 10 -185360 -261234 -261234 0 1;
#X obj 192 110 bng 15 250 50 0 empty timer_reset empty 17 7 0 10 -185360
-261234 -1;
#X msg 192 125 0;
#X obj 232 221 nbx 4 14 -1e+37 1e+37 0 0 empty empty empty 0 -8 0 10
-86277 -261234 -1 124.998 256;
#X obj 232 144 vsl 15 74 1 500 0 0 timer_lfo_bpm empty bpm 0 -42 0
10 -185360 -261234 -261234 1814 1;
#X obj 232 110 bng 15 250 50 0 empty timer_reset empty 17 7 0 10 -185360
-261234 -1;
#X obj 294 76 cnv 15 156 168 empty empty RANDOM 4 8 0 10 -86277 -261234
0;
#X obj 307 221 nbx 3 14 -1e+37 1e+37 0 0 empty empty empty 0 -8 0 10
-86277 -261234 -1 0 256;
#X obj 307 144 vsl 15 74 0 100 0 0 empty empty width 0 -42 0 10 -185360
-261234 -261234 0 1;
#X obj 307 110 bng 15 250 50 0 empty timer_reset empty 17 7 0 10 -185360
-261234 -1;
#X msg 307 125 0;
#X obj 347 221 nbx 4 14 -1e+37 1e+37 0 0 empty empty empty 0 -8 0 10
-86277 -261234 -1 1000.09 256;
#X obj 347 144 vsl 15 74 10 2000 0 0 empty empty speed 0 -42 0 10 -185360
-261234 -261234 3632 1;
#X obj 347 110 bng 15 250 50 0 empty timer_reset empty 17 7 0 10 -185360
-261234 -1;
#X msg 347 125 1000;
#X obj 396 221 nbx 4 14 -1e+37 1e+37 0 0 empty empty empty 0 -8 0 10
-86277 -261234 -1 1000.09 256;
#X obj 396 144 vsl 15 74 10 2000 0 0 empty empty spd_rnd 0 -42 0 10
-185360 -261234 -261234 3632 1;
#X obj 396 110 bng 15 250 50 0 empty timer_reset empty 17 7 0 10 -185360
-261234 -1;
#X msg 396 125 1000;
#X obj 60 86 tgl 15 0 timer_run empty run 17 7 0 10 -185360 -261234
-261234 1 1;
#X msg 232 125 125;
#X connect 7 0 6 0;
#X connect 8 0 10 0;
#X connect 10 0 7 0;
#X connect 13 0 12 0;
#X connect 14 0 15 0;
#X connect 15 0 13 0;
#X connect 17 0 16 0;
#X connect 18 0 33 0;
#X connect 21 0 20 0;
#X connect 22 0 23 0;
#X connect 23 0 21 0;
#X connect 25 0 24 0;
#X connect 26 0 27 0;
#X connect 27 0 25 0;
#X connect 29 0 28 0;
#X connect 30 0 31 0;
#X connect 31 0 29 0;
#X connect 33 0 17 0;
