#N canvas 213 226 584 304 10;
#X obj 43 32 cnv 15 418 224 empty empty ponyoTimer 10 20 0 22 -185360
-261682 0;
#X obj 54 76 cnv 15 66 60 empty empty empty 4 8 0 10 -86277 -261234
0;
#X obj 60 111 bng 15 250 50 0 timer_reset empty reset 17 7 0 10 -185360
-261234 -261234;
#X obj 123 76 cnv 15 53 168 empty empty empty 4 8 0 10 -86277 -261234
0;
#X obj 430 43 bng 20 100 50 0 empty timer_finalpush empty 17 8 0 10
-86277 -261234 -261234;
#X obj 391 49 nbx 3 14 -1e+37 1e+37 0 0 empty timer_finalbpm empty
0 -8 0 10 -86277 -261234 -261234 165.391 256;
#X obj 132 221 nbx 3 14 -1e+37 1e+37 0 0 empty empty empty 0 -8 0 10
-86277 -261234 -1 165.391 256;
#X obj 132 132 vsl 15 86 40 500 0 0 timer_bpm empty bpm 0 -42 0 10
-185360 -261234 -261234 2317 1;
#X obj 132 98 bng 15 250 50 0 empty timer_reset empty 17 7 0 10 -185360
-261234 -1;
#N canvas 706 190 657 374 timer 0;
#X obj -33 102 bng 15 250 50 0 timer_reset empty empty 17 7 0 10 -262144
-1 -1;
#X obj -33 75 loadbang;
#X obj 103 59 receive timer_run;
#X obj 113 86 tgl 15 0 empty empty empty 17 7 0 10 -262144 -1 -1 1
1;
#X obj 287 -31 receive timer_bpm;
#X obj 297 -4 nbx 5 14 -1e+37 1e+37 0 0 empty empty empty 0 -8 0 10
-262144 -1 -1 165.391 256;
#X obj 103 111 metro 1000;
#X obj 103 138 bng 15 250 50 0 timer_finalpush empty empty 17 7 0 10
-262144 -1 -1;
#X msg 254 -4 60;
#X obj 272 23 /;
#X obj 272 50 * 1000;
#X msg 227 77 60000;
#X obj 257 104 /;
#X obj 257 155 send timer_finalbpm;
#X obj 267 131 nbx 5 14 -1e+37 1e+37 0 0 empty empty empty 0 -8 0 10
-262144 -1 -1 165.391 256;
#X connect 1 0 0 0;
#X connect 2 0 3 0;
#X connect 2 0 6 0;
#X connect 4 0 5 0;
#X connect 4 0 9 1;
#X connect 4 0 8 0;
#X connect 6 0 7 0;
#X connect 8 0 9 0;
#X connect 9 0 10 0;
#X connect 10 0 6 1;
#X connect 10 0 12 1;
#X connect 10 0 11 0;
#X connect 11 0 12 0;
#X connect 12 0 13 0;
#X connect 12 0 14 0;
#X restore 472 239 pd timer;
#X msg 132 113 125;
#X obj 179 76 cnv 15 106 168 empty empty LFO 4 8 0 10 -86277 -261234
0;
#X obj 192 221 nbx 3 14 -1e+37 1e+37 0 0 empty empty empty 0 -8 0 10
-86277 -261234 -1 0 256;
#X obj 192 144 vsl 15 74 0 100 0 0 empty empty width 0 -42 0 10 -185360
-261234 -261234 0 1;
#X obj 192 110 bng 15 250 50 0 empty timer_reset empty 17 7 0 10 -185360
-261234 -1;
#X msg 192 125 0;
#X obj 232 221 nbx 4 14 -1e+37 1e+37 0 0 empty empty empty 0 -8 0 10
-86277 -261234 -1 1000.09 256;
#X obj 232 144 vsl 15 74 10 2000 0 0 empty empty speed 0 -42 0 10 -185360
-261234 -261234 3632 1;
#X obj 232 110 bng 15 250 50 0 empty timer_reset empty 17 7 0 10 -185360
-261234 -1;
#X msg 232 125 1000;
#X obj 294 76 cnv 15 156 168 empty empty RANDOM 4 8 0 10 -86277 -261234
0;
#X obj 307 221 nbx 3 14 -1e+37 1e+37 0 0 empty empty empty 0 -8 0 10
-86277 -261234 -1 0 256;
#X obj 307 144 vsl 15 74 0 100 0 0 empty empty width 0 -42 0 10 -185360
-261234 -261234 0 1;
#X obj 307 110 bng 15 250 50 0 empty timer_reset empty 17 7 0 10 -185360
-261234 -1;
#X msg 307 125 0;
#X obj 347 221 nbx 4 14 -1e+37 1e+37 0 0 empty empty empty 0 -8 0 10
-86277 -261234 -1 1000.09 256;
#X obj 347 144 vsl 15 74 10 2000 0 0 empty empty speed 0 -42 0 10 -185360
-261234 -261234 3632 1;
#X obj 347 110 bng 15 250 50 0 empty timer_reset empty 17 7 0 10 -185360
-261234 -1;
#X msg 347 125 1000;
#X obj 396 221 nbx 4 14 -1e+37 1e+37 0 0 empty empty empty 0 -8 0 10
-86277 -261234 -1 1000.09 256;
#X obj 396 144 vsl 15 74 10 2000 0 0 empty empty spd_rnd 0 -42 0 10
-185360 -261234 -261234 3632 1;
#X obj 396 110 bng 15 250 50 0 empty timer_reset empty 17 7 0 10 -185360
-261234 -1;
#X msg 396 125 1000;
#X obj 60 86 tgl 15 0 timer_run empty run 17 7 0 10 -185360 -261234
-261234 1 1;
#X connect 7 0 6 0;
#X connect 8 0 10 0;
#X connect 10 0 7 0;
#X connect 13 0 12 0;
#X connect 14 0 15 0;
#X connect 15 0 13 0;
#X connect 17 0 16 0;
#X connect 18 0 19 0;
#X connect 19 0 17 0;
#X connect 22 0 21 0;
#X connect 23 0 24 0;
#X connect 24 0 22 0;
#X connect 26 0 25 0;
#X connect 27 0 28 0;
#X connect 28 0 26 0;
#X connect 30 0 29 0;
#X connect 31 0 32 0;
#X connect 32 0 30 0;
